<svg width="425" height="711" viewBox="0 0 425 711" fill="none" xmlns="http://www.w3.org/2000/svg">
<g clip-path="url(#clip0_25_896)">
<path d="M172.968 1025.66C208.421 965.841 229.027 999.703 264.48 939.888C299.934 880.073 279.329 846.211 314.772 786.413C350.215 726.615 370.831 760.46 406.284 700.645C441.738 640.83 421.133 606.968 456.586 547.153C492.04 487.338 512.645 521.2 548.109 461.368C583.573 401.536 562.957 367.691 598.411 307.876" stroke="#A0A3BD" stroke-opacity="0.05" stroke-width="0.934775" stroke-miterlimit="10"/>
<path d="M-230.071 352.272C-194.618 292.457 -174.012 326.319 -138.559 266.504C-103.105 206.689 -123.71 172.828 -88.2671 113.03C-52.8237 53.232 -32.2082 87.0766 3.24535 27.2617C38.699 -32.5533 18.0937 -66.4152 53.5473 -126.23C89.0009 -186.045 109.606 -152.183 145.07 -212.015C180.534 -271.848 159.918 -305.692 195.372 -365.507" stroke="#A0A3BD" stroke-opacity="0.05" stroke-width="0.934775" stroke-miterlimit="10"/>
<path d="M27.4556 774.144C62.9092 714.329 83.5144 748.191 118.968 688.376C154.422 628.561 133.816 594.699 169.26 534.901C204.703 475.103 225.319 508.948 260.772 449.133C296.226 389.318 275.621 355.456 311.074 295.641C346.528 235.826 367.133 269.688 402.597 209.856C438.061 150.024 417.445 116.179 452.899 56.3639" stroke="#A0A3BD" stroke-opacity="0.05" stroke-width="0.934775" stroke-miterlimit="10"/>
<path d="M-103.246 559.638C-67.7925 499.823 -47.1873 533.685 -11.7337 473.87C23.7199 414.055 3.11472 380.193 38.5581 320.395C74.0015 260.598 94.6169 294.442 130.071 234.627C165.524 174.812 144.919 140.951 180.373 81.1356C215.826 21.3206 236.431 55.1824 271.895 -4.64976C307.359 -64.4819 286.744 -98.3266 322.197 -158.142" stroke="#A0A3BD" stroke-opacity="0.05" stroke-width="0.934775" stroke-miterlimit="10"/>
<path d="M153.769 987.837C189.222 928.022 209.827 961.884 245.281 902.069C280.735 842.254 260.129 808.392 295.573 748.595C331.016 688.797 351.632 722.641 387.085 662.826C422.539 603.011 401.934 569.15 437.387 509.335C472.841 449.52 493.446 483.382 528.91 423.549C564.374 363.717 543.758 329.872 579.212 270.057" stroke="#A0A3BD" stroke-opacity="0.05" stroke-width="0.934775" stroke-miterlimit="10"/>
<path d="M-167.749 462.702C-132.295 402.887 -111.69 436.749 -76.2361 376.934C-40.7825 317.119 -61.3877 283.257 -25.9443 223.459C9.49908 163.661 30.1145 197.506 65.5681 137.691C101.022 77.8759 80.4165 44.014 115.87 -15.801C151.324 -75.616 171.929 -41.7541 207.393 -101.586C242.857 -161.418 222.241 -195.263 257.695 -255.078" stroke="#A0A3BD" stroke-opacity="0.05" stroke-width="0.934775" stroke-miterlimit="10"/>
<path d="M89.2656 883.862C124.719 824.047 145.324 857.909 180.778 798.094C216.232 738.279 195.626 704.417 231.07 644.62C266.513 584.822 287.129 618.666 322.582 558.851C358.036 499.037 337.431 465.175 372.884 405.36C408.338 345.545 428.943 379.407 464.407 319.574C499.871 259.742 479.255 225.897 514.709 166.083" stroke="#A0A3BD" stroke-opacity="0.05" stroke-width="0.934775" stroke-miterlimit="10"/>
<path d="M-40.9233 670.067C-5.46974 610.252 15.1355 644.114 50.5891 584.299C86.0427 524.484 65.4375 490.622 100.881 430.825C136.324 371.027 156.94 404.872 192.393 345.057C227.847 285.242 207.242 251.38 242.695 191.565C278.149 131.75 298.754 165.612 334.218 105.779C369.682 45.9472 349.066 12.1026 384.52 -47.7124" stroke="#A0A3BD" stroke-opacity="0.05" stroke-width="0.934775" stroke-miterlimit="10"/>
<path d="M216.091 1098.27C251.544 1038.45 272.15 1072.31 307.603 1012.5C343.057 952.684 322.452 918.822 357.895 859.024C393.338 799.226 413.954 833.071 449.407 773.256C484.861 713.441 464.256 679.579 499.709 619.764C535.163 559.949 555.768 593.811 591.232 533.979C626.696 474.147 606.08 440.302 641.534 380.487" stroke="#A0A3BD" stroke-opacity="0.05" stroke-width="0.934775" stroke-miterlimit="10"/>
<path d="M-238.686 332.718C-203.232 272.903 -182.627 306.765 -147.174 246.95C-111.72 187.135 -132.325 153.273 -96.8818 93.4753C-61.4384 33.6775 -40.823 67.5222 -5.36939 7.70721C30.0842 -52.1078 9.47897 -85.9696 44.9326 -145.785C80.3862 -205.6 100.991 -171.738 136.455 -231.57C171.919 -291.402 151.304 -325.247 186.757 -385.062" stroke="#A0A3BD" stroke-opacity="0.05" stroke-width="0.934775" stroke-miterlimit="10"/>
<path d="M18.8408 754.589C54.2944 694.774 74.8996 728.636 110.353 668.821C145.807 609.006 125.202 575.144 160.645 515.347C196.088 455.549 216.704 489.393 252.157 429.578C287.611 369.763 267.006 335.902 302.459 276.087C337.913 216.272 358.518 250.133 393.982 190.301C429.446 130.469 408.83 96.6244 444.284 36.8094" stroke="#A0A3BD" stroke-opacity="0.05" stroke-width="0.934775" stroke-miterlimit="10"/>
<path d="M-111.861 540.084C-76.4072 480.269 -55.802 514.131 -20.3484 454.316C15.1052 394.501 -5.50003 360.639 29.9434 300.841C65.3868 241.043 86.0022 274.888 121.456 215.073C156.909 155.258 136.304 121.396 171.758 61.5811C207.211 1.76613 227.817 35.628 263.28 -24.2042C298.744 -84.0364 278.129 -117.881 313.582 -177.696" stroke="#A0A3BD" stroke-opacity="0.05" stroke-width="0.934775" stroke-miterlimit="10"/>
<path d="M145.154 968.283C180.607 908.468 201.213 942.33 236.666 882.515C272.12 822.7 251.515 788.838 286.958 729.04C322.401 669.242 343.017 703.087 378.47 643.272C413.924 583.457 393.319 549.595 428.772 489.78C464.226 429.965 484.831 463.827 520.295 403.995C555.759 344.163 535.143 310.318 570.597 250.503" stroke="#A0A3BD" stroke-opacity="0.05" stroke-width="0.934775" stroke-miterlimit="10"/>
<path d="M-176.363 443.147C-140.91 383.332 -120.304 417.194 -84.8509 357.379C-49.3972 297.564 -70.0025 263.703 -34.5591 203.905C0.884336 144.107 21.4998 177.952 56.9534 118.137C92.407 58.3217 71.8017 24.4598 107.255 -35.3552C142.709 -95.1702 163.314 -61.3083 198.778 -121.14C234.242 -180.973 213.626 -214.817 249.08 -274.632" stroke="#A0A3BD" stroke-opacity="0.05" stroke-width="0.934775" stroke-miterlimit="10"/>
<path d="M80.6509 864.307C116.104 804.493 136.71 838.354 172.163 778.539C207.617 718.724 187.012 684.863 222.455 625.065C257.898 565.267 278.514 599.112 313.968 539.297C349.421 479.482 328.816 445.62 364.269 385.805C399.723 325.99 420.328 359.852 455.792 300.02C491.256 240.187 470.641 206.343 506.094 146.528" stroke="#A0A3BD" stroke-opacity="0.05" stroke-width="0.934775" stroke-miterlimit="10"/>
<path d="M-49.5381 650.513C-14.0845 590.698 6.52074 624.56 41.9743 564.745C77.4279 504.93 56.8227 471.068 92.2661 411.27C127.71 351.473 148.325 385.317 183.779 325.502C219.232 265.687 198.627 231.825 234.081 172.01C269.534 112.195 290.139 146.057 325.603 86.2251C361.067 26.3929 340.452 -7.45174 375.905 -67.2667" stroke="#A0A3BD" stroke-opacity="0.05" stroke-width="0.934775" stroke-miterlimit="10"/>
<path d="M207.477 1078.71C242.93 1018.9 263.535 1052.76 298.989 992.944C334.443 933.129 313.837 899.268 349.281 839.47C384.724 779.672 405.34 813.517 440.793 753.702C476.247 693.887 455.642 660.025 491.095 600.21C526.549 540.395 547.154 574.257 582.618 514.425C618.082 454.592 597.466 420.748 632.92 360.933" stroke="#A0A3BD" stroke-opacity="0.05" stroke-width="0.934775" stroke-miterlimit="10"/>
<path d="M-262.892 296.592C-227.438 236.777 -206.833 270.639 -171.379 210.824C-135.926 151.009 -156.531 117.147 -121.087 57.3496C-85.644 -2.44821 -65.0286 31.3965 -29.575 -28.4185C5.87865 -88.2335 -14.7266 -122.095 20.727 -181.91C56.1806 -241.725 76.7858 -207.863 112.25 -267.696C147.713 -327.528 127.098 -361.373 162.552 -421.188" stroke="#A0A3BD" stroke-opacity="0.05" stroke-width="0.934775" stroke-miterlimit="10"/>
<path d="M-5.36475 718.463C30.0889 658.648 50.6941 692.51 86.1477 632.695C121.601 572.88 100.996 539.018 136.439 479.221C171.883 419.423 192.498 453.268 227.952 393.453C263.406 333.638 242.8 299.776 278.254 239.961C313.707 180.146 334.313 214.008 369.777 154.175C405.24 94.3432 384.625 60.4986 420.078 0.683591" stroke="#A0A3BD" stroke-opacity="0.05" stroke-width="0.934775" stroke-miterlimit="10"/>
<path d="M-136.066 510.997C-100.613 451.182 -80.0076 485.044 -44.554 425.229C-9.10037 365.414 -29.7056 331.552 5.73781 271.754C41.1812 211.957 61.7966 245.801 97.2502 185.986C132.704 126.171 112.099 92.3094 147.552 32.4944C183.006 -27.3205 203.611 6.54132 239.075 -53.2909C274.539 -113.123 253.923 -146.968 289.377 -206.783" stroke="#A0A3BD" stroke-opacity="0.05" stroke-width="0.934775" stroke-miterlimit="10"/>
<path d="M120.948 932.157C156.402 872.342 177.007 906.204 212.461 846.389C247.914 786.574 227.309 752.712 262.752 692.914C298.196 633.116 318.811 666.961 354.265 607.146C389.718 547.331 369.113 513.469 404.567 453.654C440.02 393.839 460.626 427.701 496.089 367.869C531.553 308.037 510.938 274.192 546.391 214.377" stroke="#A0A3BD" stroke-opacity="0.05" stroke-width="0.934775" stroke-miterlimit="10"/>
<path d="M-200.569 407.022C-165.116 347.207 -144.511 381.069 -109.057 321.254C-73.6033 261.439 -94.2085 227.577 -58.7651 167.779C-23.3217 107.981 -2.70629 141.826 32.7473 82.011C68.2009 22.1961 47.5957 -11.6658 83.0493 -71.4808C118.503 -131.296 139.108 -97.4339 174.572 -157.266C210.036 -217.098 189.42 -250.943 224.874 -310.758" stroke="#A0A3BD" stroke-opacity="0.05" stroke-width="0.934775" stroke-miterlimit="10"/>
<path d="M56.9575 828.893C92.4111 769.078 113.016 802.94 148.47 743.125C183.924 683.31 163.318 649.448 198.762 589.65C234.205 529.853 254.821 563.697 290.274 503.882C325.728 444.067 305.123 410.205 340.576 350.39C376.03 290.575 396.635 324.437 432.099 264.605C467.563 204.773 446.947 170.928 482.401 111.113" stroke="#A0A3BD" stroke-opacity="0.05" stroke-width="0.934775" stroke-miterlimit="10"/>
<path d="M-73.7441 614.387C-38.2905 554.572 -17.6853 588.434 17.7683 528.619C53.2219 468.804 32.6167 434.942 68.0601 375.145C103.503 315.347 124.119 349.192 159.573 289.377C195.026 229.562 174.421 195.7 209.874 135.885C245.328 76.0698 265.933 109.932 301.397 50.0995C336.861 -9.73268 316.245 -43.5774 351.699 -103.392" stroke="#A0A3BD" stroke-opacity="0.05" stroke-width="0.934775" stroke-miterlimit="10"/>
<path d="M183.271 1042.59C218.724 982.772 239.329 1016.63 274.783 956.819C310.237 897.004 289.631 863.142 325.075 803.344C360.518 743.546 381.134 777.391 416.587 717.576C452.041 657.761 431.436 623.899 466.889 564.084C502.343 504.269 522.948 538.131 558.412 478.299C593.876 418.467 573.26 384.622 608.714 324.807" stroke="#A0A3BD" stroke-opacity="0.05" stroke-width="0.934775" stroke-miterlimit="10"/>
<path d="M-219.769 369.204C-184.315 309.389 -163.71 343.251 -128.256 283.436C-92.8025 223.621 -113.408 189.759 -77.9643 129.961C-42.5209 70.1631 -21.9055 104.008 13.5481 44.1928C49.0017 -15.6222 28.3965 -49.484 63.8501 -109.299C99.3037 -169.114 119.909 -135.252 155.373 -195.084C190.837 -254.917 170.221 -288.761 205.675 -348.576" stroke="#A0A3BD" stroke-opacity="0.05" stroke-width="0.934775" stroke-miterlimit="10"/>
<path d="M37.7583 791.075C73.2119 731.26 93.8171 765.121 129.271 705.307C164.724 645.492 144.119 611.63 179.563 551.832C215.006 492.034 235.621 525.879 271.075 466.064C306.529 406.249 285.923 372.387 321.377 312.572C356.831 252.757 377.436 286.619 412.9 226.787C448.363 166.954 427.748 133.11 463.202 73.2948" stroke="#A0A3BD" stroke-opacity="0.05" stroke-width="0.934775" stroke-miterlimit="10"/>
<path d="M-92.9434 576.569C-57.4898 516.754 -36.8845 550.616 -1.43093 490.801C34.0227 430.986 13.4175 397.124 48.8609 337.327C84.3043 277.529 104.92 311.374 140.373 251.559C175.827 191.744 155.222 157.882 190.675 98.0667C226.129 38.2517 246.734 72.1136 282.198 12.2814C317.662 -47.5508 297.046 -81.3955 332.5 -141.21" stroke="#A0A3BD" stroke-opacity="0.05" stroke-width="0.934775" stroke-miterlimit="10"/>
<path d="M164.071 1004.77C199.525 944.954 220.13 978.815 255.584 919C291.037 859.185 270.432 825.324 305.876 765.526C341.319 705.728 361.934 739.573 397.388 679.758C432.842 619.943 412.236 586.081 447.69 526.266C483.144 466.451 503.749 500.313 539.213 440.481C574.676 380.648 554.061 346.804 589.515 286.989" stroke="#A0A3BD" stroke-opacity="0.05" stroke-width="0.934775" stroke-miterlimit="10"/>
<path d="M-157.446 479.633C-121.993 419.818 -101.387 453.68 -65.9339 393.865C-30.4803 334.05 -51.0855 300.188 -15.6421 240.39C19.8013 180.593 40.4168 214.437 75.8704 154.622C111.324 94.8073 90.7187 60.9454 126.172 1.13043C161.626 -58.6846 182.231 -24.8227 217.695 -84.6549C253.159 -144.487 232.543 -178.332 267.997 -238.147" stroke="#A0A3BD" stroke-opacity="0.05" stroke-width="0.934775" stroke-miterlimit="10"/>
<path d="M99.5679 900.793C135.021 840.978 155.627 874.84 191.08 815.025C226.534 755.21 205.929 721.348 241.372 661.55C276.815 601.753 297.431 635.597 332.885 575.782C368.338 515.967 347.733 482.106 383.186 422.291C418.64 362.476 439.245 396.337 474.709 336.505C510.173 276.673 489.558 242.828 525.011 183.013" stroke="#A0A3BD" stroke-opacity="0.05" stroke-width="0.934775" stroke-miterlimit="10"/>
<path d="M-30.6206 686.998C4.833 627.183 25.4382 661.045 60.8918 601.23C96.3454 541.415 75.7402 507.553 111.184 447.756C146.627 387.958 167.242 421.803 202.696 361.988C238.15 302.173 217.544 268.311 252.998 208.496C288.452 148.681 309.057 182.543 344.521 122.71C379.984 62.8783 359.369 29.0336 394.823 -30.7814" stroke="#A0A3BD" stroke-opacity="0.05" stroke-width="0.934775" stroke-miterlimit="10"/>
<path d="M226.394 1115.2C261.847 1055.38 282.452 1089.24 317.906 1029.43C353.36 969.615 332.754 935.753 368.198 875.955C403.641 816.157 424.257 850.002 459.71 790.187C495.164 730.372 474.559 696.51 510.012 636.695C545.466 576.88 566.071 610.742 601.535 550.91C636.999 491.078 616.383 457.233 651.837 397.418" stroke="#A0A3BD" stroke-opacity="0.05" stroke-width="0.934775" stroke-miterlimit="10"/>
<path d="M-84.0464 597.456C-48.5928 537.641 -27.9876 571.503 7.46604 511.688C42.9196 451.873 22.3144 418.011 57.7578 358.214C93.2012 298.416 113.817 332.261 149.27 272.446C184.724 212.631 164.119 178.769 199.572 118.954C235.026 59.1388 255.631 93.0007 291.095 33.1685C326.559 -26.6637 305.943 -60.5084 341.397 -120.323" stroke="#A0A3BD" stroke-opacity="0.05" stroke-width="0.934775" stroke-miterlimit="10"/>
<path d="M-273.194 279.661C-237.741 219.846 -217.136 253.708 -181.682 193.893C-146.228 134.078 -166.834 100.216 -131.39 40.4184C-95.9467 -19.3794 -75.3313 14.4653 -39.8777 -45.3497C-4.42409 -105.165 -25.0293 -139.027 10.4243 -198.841C45.8779 -258.656 66.4831 -224.795 101.947 -284.627C137.411 -344.459 116.795 -378.304 152.249 -438.119" stroke="#A0A3BD" stroke-opacity="0.05" stroke-width="0.934775" stroke-miterlimit="10"/>
<path d="M-15.6675 701.532C19.7861 641.717 40.3913 675.579 75.8449 615.764C111.299 555.949 90.6933 522.087 126.137 462.29C161.58 402.492 182.196 436.336 217.649 376.521C253.103 316.706 232.498 282.845 267.951 223.03C303.405 163.215 324.01 197.076 359.474 137.244C394.938 77.4121 374.322 43.5674 409.776 -16.2476" stroke="#A0A3BD" stroke-opacity="0.05" stroke-width="0.934775" stroke-miterlimit="10"/>
<path d="M-146.369 494.066C-110.916 434.251 -90.3103 468.113 -54.8567 408.298C-19.4031 348.483 -40.0083 314.621 -4.56493 254.823C30.8785 195.025 51.4939 228.87 86.9475 169.055C122.401 109.24 101.796 75.3783 137.249 15.5633C172.703 -44.2517 193.308 -10.3898 228.772 -70.222C264.236 -130.054 243.62 -163.899 279.074 -223.714" stroke="#A0A3BD" stroke-opacity="0.05" stroke-width="0.934775" stroke-miterlimit="10"/>
<path d="M110.646 915.226C146.099 855.411 166.704 889.273 202.158 829.458C237.612 769.643 217.006 735.781 252.45 675.983C287.893 616.186 308.509 650.03 343.962 590.215C379.416 530.4 358.811 496.538 394.264 436.723C429.718 376.908 450.323 410.77 485.787 350.938C521.251 291.106 500.635 257.261 536.089 197.446" stroke="#A0A3BD" stroke-opacity="0.05" stroke-width="0.934775" stroke-miterlimit="10"/>
<path d="M-210.872 390.091C-175.418 330.276 -154.813 364.137 -119.36 304.322C-83.906 244.508 -104.511 210.646 -69.0679 150.848C-33.6245 91.0501 -13.009 124.895 22.4446 65.0798C57.8982 5.26479 37.2929 -28.5971 72.7465 -88.4121C108.2 -148.227 128.805 -114.365 164.269 -174.197C199.733 -234.03 179.118 -267.874 214.571 -327.689" stroke="#A0A3BD" stroke-opacity="0.05" stroke-width="0.934775" stroke-miterlimit="10"/>
<path d="M46.6548 811.962C82.1084 752.147 102.714 786.009 138.167 726.194C173.621 666.379 153.016 632.517 188.459 572.719C223.902 512.921 244.518 546.766 279.971 486.951C315.425 427.136 294.82 393.274 330.273 333.459C365.727 273.644 386.332 307.506 421.796 247.674C457.26 187.842 436.644 153.997 472.098 94.1821" stroke="#A0A3BD" stroke-opacity="0.05" stroke-width="0.934775" stroke-miterlimit="10"/>
<path d="M-248.989 315.787C-213.535 255.972 -192.93 289.834 -157.476 230.019C-122.023 170.204 -142.628 136.342 -107.185 76.5441C-71.7412 16.7464 -51.1257 50.591 -15.6721 -9.22394C19.7815 -69.0389 -0.823761 -102.901 34.6298 -162.716C70.0834 -222.531 90.6887 -188.669 126.152 -248.501C161.616 -308.333 141.001 -342.178 176.454 -401.993" stroke="#A0A3BD" stroke-opacity="0.05" stroke-width="0.934775" stroke-miterlimit="10"/>
<path d="M8.53857 737.658C43.9922 677.843 64.5974 711.705 100.051 651.89C135.505 592.075 114.899 558.213 150.343 498.415C185.786 438.617 206.402 472.462 241.855 412.647C277.309 352.832 256.704 318.97 292.157 259.155C327.611 199.34 348.216 233.202 383.68 173.37C419.144 113.538 398.528 79.6932 433.982 19.8782" stroke="#A0A3BD" stroke-opacity="0.05" stroke-width="0.934775" stroke-miterlimit="10"/>
<path d="M-122.163 523.153C-86.7095 463.338 -66.1043 497.199 -30.6507 437.385C4.80295 377.57 -15.8023 343.708 19.6411 283.91C55.0845 224.112 75.7 257.957 111.154 198.142C146.607 138.327 126.002 104.465 161.456 44.65C196.909 -15.165 217.514 18.6968 252.978 -41.1354C288.442 -100.968 267.827 -134.812 303.28 -194.627" stroke="#A0A3BD" stroke-opacity="0.05" stroke-width="0.934775" stroke-miterlimit="10"/>
<path d="M134.851 951.352C170.305 891.537 190.91 925.398 226.364 865.583C261.817 805.768 241.212 771.907 276.655 712.109C312.099 652.311 332.714 686.156 368.168 626.341C403.621 566.526 383.016 532.664 418.47 472.849C453.923 413.034 474.529 446.896 509.992 387.064C545.456 327.231 524.841 293.387 560.294 233.572" stroke="#A0A3BD" stroke-opacity="0.05" stroke-width="0.934775" stroke-miterlimit="10"/>
<path d="M-186.666 426.216C-151.212 366.401 -130.607 400.263 -95.1536 340.448C-59.7 280.633 -80.3052 246.771 -44.8618 186.974C-9.4184 127.176 11.197 161.02 46.6506 101.206C82.1042 41.3905 61.499 7.52866 96.9526 -52.2863C132.406 -112.101 153.011 -78.2394 188.475 -138.072C223.939 -197.904 203.324 -231.748 238.777 -291.563" stroke="#A0A3BD" stroke-opacity="0.05" stroke-width="0.934775" stroke-miterlimit="10"/>
<path d="M70.3486 847.376C105.802 787.561 126.407 821.423 161.861 761.608C197.315 701.793 176.709 667.932 212.153 608.134C247.596 548.336 268.212 582.181 303.665 522.366C339.119 462.551 318.514 428.689 353.967 368.874C389.421 309.059 410.026 342.921 445.49 283.089C480.954 223.256 460.338 189.412 495.792 129.597" stroke="#A0A3BD" stroke-opacity="0.05" stroke-width="0.934775" stroke-miterlimit="10"/>
<path d="M-59.8408 633.582C-24.3872 573.767 -3.78199 607.629 31.6716 547.814C67.1252 487.999 46.52 454.137 81.9634 394.339C117.407 334.542 138.022 368.386 173.476 308.571C208.929 248.756 188.324 214.894 223.778 155.079C259.231 95.2644 279.837 129.126 315.3 69.2941C350.764 9.4619 330.149 -24.3828 365.602 -84.1978" stroke="#A0A3BD" stroke-opacity="0.05" stroke-width="0.934775" stroke-miterlimit="10"/>
<path d="M197.174 1061.78C232.627 1001.97 253.233 1035.83 288.686 976.013C324.14 916.198 303.535 882.336 338.978 822.538C374.421 762.741 395.037 796.585 430.49 736.77C465.944 676.955 445.339 643.093 480.792 583.278C516.246 523.463 536.851 557.325 572.315 497.493C607.779 437.661 587.163 403.816 622.617 344.001" stroke="#A0A3BD" stroke-opacity="0.05" stroke-width="0.934775" stroke-miterlimit="10"/>
</g>
<defs>
<clipPath id="clip0_25_896">
<rect width="427" height="711" fill="white"/>
</clipPath>
</defs>
</svg>
